<svg class="svg-icon" style="width: 1em; height: 1em;vertical-align: middle;fill: currentColor;overflow: hidden;" viewBox="0 0 1024 1024" version="1.1" xmlns="http://www.w3.org/2000/svg"><path d="M276.48 494.933333c-64.853333 0-133.12-20.48-170.666667-58.026666C34.133333 365.226667 34.133333 238.933333 34.133333 129.706667V102.4c0-10.24 6.826667-17.066667 17.066667-17.066667 112.64 0 273.066667 10.24 354.986667 88.746667 34.133333 34.133333 51.2 85.333333 47.786666 146.773333 0 54.613333-20.48 105.813333-47.786666 136.533334-27.306667 23.893333-78.506667 37.546667-129.706667 37.546666zM68.266667 119.466667v10.24c0 102.4 0 221.866667 64.853333 283.306666 58.026667 58.026667 204.8 61.44 249.173333 17.066667 47.786667-47.786667 54.613333-177.493333 0-232.106667C310.613333 133.12 174.08 119.466667 68.266667 119.466667z" fill="" /><path d="M494.933333 938.666667c-10.24 0-17.066667-6.826667-17.066666-17.066667 0-453.973333-184.32-580.266667-245.76-621.226667-10.24-6.826667-17.066667-10.24-23.893334-13.653333-3.413333-6.826667-3.413333-20.48 0-27.306667s17.066667-6.826667 23.893334 0c3.413333 3.413333 10.24 10.24 17.066666 13.653334 54.613333 37.546667 201.386667 136.533333 245.76 447.146666 30.72-143.36 105.813333-283.306667 259.413334-358.4 6.826667-3.413333 20.48 0 23.893333 6.826667s0 17.066667-6.826667 23.893333h-3.413333C556.373333 494.933333 512 737.28 512 921.6c0 10.24-6.826667 17.066667-17.066667 17.066667z" fill="" /><path d="M747.52 563.2c-51.2 0-98.986667-13.653333-126.293333-40.96-27.306667-27.306667-47.786667-78.506667-47.786667-136.533333-3.413333-58.026667 17.066667-112.64 47.786667-146.773334 81.92-81.92 238.933333-88.746667 354.986666-88.746666 6.826667 3.413333 13.653333 10.24 13.653334 20.48v27.306666c0 109.226667 0 235.52-71.68 310.613334-37.546667 34.133333-105.813333 54.613333-170.666667 54.613333z m208.213333-375.466667c-105.813333 0-242.346667 13.653333-310.613333 81.92-54.613333 54.613333-47.786667 184.32 0 232.106667 44.373333 44.373333 191.146667 40.96 249.173333-17.066667C955.733333 419.84 955.733333 300.373333 955.733333 197.973333v-10.24z" fill="" /></svg>